<svg xmlns="http://www.w3.org/2000/svg" xmlns:xlink="http://www.w3.org/1999/xlink" version="1.1" width="256" height="256" viewBox="0 0 256 256" xml:space="preserve">

<defs>
</defs>
<g style="stroke: none; stroke-width: 0; stroke-dasharray: none; stroke-linecap: butt; stroke-linejoin: miter; stroke-miterlimit: 10; fill: none; fill-rule: nonzero; opacity: 1;" transform="translate(1.4065934065934016 1.4065934065934016) scale(2.81 2.81)" >
	<path d="M 45 30 c -8.285 0 -15 6.716 -15 15 s 6.716 14.999 14.999 15 C 53.284 60 60 53.284 60 45 S 53.284 30.001 45 30 z" style="stroke: none; stroke-width: 1; stroke-dasharray: none; stroke-linecap: butt; stroke-linejoin: miter; stroke-miterlimit: 10; fill: rgb(255,255,255); fill-rule: nonzero; opacity: 1;" transform=" matrix(1 0 0 1 0 0) " stroke-linecap="round" />
	<path d="M 89.729 26.447 c -0.219 -4.79 -0.98 -8.061 -2.092 -10.923 c -1.13 -3.003 -2.901 -5.723 -5.19 -7.971 c -2.247 -2.289 -4.968 -4.062 -7.971 -5.192 C 71.614 1.25 68.343 0.49 63.553 0.272 C 58.754 0.053 57.221 0 45 0 S 31.246 0.053 26.447 0.271 c -4.79 0.219 -8.061 0.98 -10.923 2.092 c -3.003 1.13 -5.723 2.901 -7.971 5.19 C 5.264 9.8 3.491 12.52 2.361 15.523 C 1.25 18.386 0.49 21.657 0.272 26.446 C 0.052 31.246 0 32.779 0 45 c 0 12.222 0.052 13.755 0.272 18.554 c 0.218 4.789 0.979 8.061 2.092 10.923 c 1.13 3.002 2.901 5.723 5.19 7.97 c 2.247 2.289 4.968 4.061 7.971 5.19 c 2.862 1.113 6.133 1.873 10.923 2.092 C 31.247 89.948 32.78 90 45.001 90 c 12.221 0 13.754 -0.051 18.553 -0.271 c 4.79 -0.219 8.061 -0.979 10.923 -2.092 c 6.045 -2.337 10.823 -7.116 13.16 -13.16 c 1.113 -2.863 1.873 -6.134 2.092 -10.923 C 89.948 58.754 90 57.221 90 45 S 89.948 31.246 89.729 26.447 z M 44.999 68.108 c -12.762 0 -23.108 -10.346 -23.108 -23.108 c 0 -12.762 10.346 -23.108 23.108 -23.108 c 12.763 0 23.108 10.346 23.108 23.108 C 68.107 57.762 57.762 68.108 44.999 68.108 z M 69.021 26.379 c -2.983 0 -5.4 -2.418 -5.4 -5.4 c 0 -2.983 2.418 -5.4 5.4 -5.4 s 5.4 2.418 5.4 5.4 S 72.003 26.379 69.021 26.379 z" style="stroke: none; stroke-width: 1; stroke-dasharray: none; stroke-linecap: butt; stroke-linejoin: miter; stroke-miterlimit: 10; fill: rgb(255,255,255); fill-rule: nonzero; opacity: 1;" transform=" matrix(1 0 0 1 0 0) " stroke-linecap="round" />
</g>
</svg>