<svg xmlns="http://www.w3.org/2000/svg" xmlns:xlink="http://www.w3.org/1999/xlink" version="1.1" width="256" height="256" viewBox="0 0 256 256" xml:space="preserve">

<defs>
</defs>
<g style="stroke: none; stroke-width: 0; stroke-dasharray: none; stroke-linecap: butt; stroke-linejoin: miter; stroke-miterlimit: 10; fill: none; fill-rule: nonzero; opacity: 1;" transform="translate(1.4065934065934016 1.4065934065934016) scale(2.81 2.81)" >
	<path d="M 23.042 17.056 c 3.969 0 7.198 -3.229 7.198 -7.197 V 7.197 C 30.24 3.229 27.011 0 23.042 0 s -7.197 3.229 -7.197 7.197 v 2.662 C 15.845 13.828 19.074 17.056 23.042 17.056 z M 17.845 7.197 C 17.845 4.332 20.177 2 23.042 2 c 2.866 0 5.198 2.332 5.198 5.197 v 2.662 c 0 2.866 -2.332 5.197 -5.198 5.197 c -2.866 0 -5.197 -2.332 -5.197 -5.197 V 7.197 z" style="stroke: none; stroke-width: 1; stroke-dasharray: none; stroke-linecap: butt; stroke-linejoin: miter; stroke-miterlimit: 10; fill: rgb(255,255,255); fill-rule: nonzero; opacity: 1;" transform=" matrix(1 0 0 1 0 0) " stroke-linecap="round" />
	<path d="M 77.53 11.988 l 4.801 -5.727 c 0.249 -0.298 0.304 -0.713 0.14 -1.065 s -0.518 -0.577 -0.906 -0.577 H 67.495 V 1 c 0 -0.552 -0.447 -1 -1 -1 H 53.552 c -0.553 0 -1 0.448 -1 1 v 11.592 v 1.146 v 6.931 H 17.889 c -3.782 0 -6.858 3.077 -6.858 6.858 v 18.555 v 30.165 H 8.435 c -0.552 0 -1 0.447 -1 1 V 89 c 0 0.553 0.448 1 1 1 h 18.047 h 18.047 h 18.046 c 0.553 0 1 -0.447 1 -1 V 54.006 c 0 -0.553 -0.447 -1 -1 -1 h -8.023 V 28.307 v -6.638 v -6.931 h 11.069 v 3.619 c 0 0.552 0.447 1 1 1 h 14.943 c 0.389 0 0.742 -0.225 0.906 -0.577 s 0.109 -0.768 -0.14 -1.065 L 77.53 11.988 z M 13.031 27.527 c 0 -2.679 2.18 -4.858 4.858 -4.858 h 34.663 v 4.638 H 31.659 c -2.159 0 -3.915 1.756 -3.915 3.915 v 7.779 c 0 2.285 1.859 4.144 4.144 4.144 h 3.705 c 1.413 0 2.563 1.149 2.563 2.563 v 18.92 h -7.25 V 53.645 c 0 -1.792 -1.458 -3.25 -3.25 -3.25 H 21.28 h -3.938 c -2.377 0 -4.312 -1.935 -4.312 -4.313 V 27.527 z M 26.482 64.627 c -0.552 0 -1 0.447 -1 1 v 10.62 H 22.28 V 52.395 h 5.375 c 0.689 0 1.25 0.561 1.25 1.25 v 10.982 H 26.482 z M 13.031 50.688 c 0.05 0.047 0.105 0.088 0.156 0.133 c 0.071 0.063 0.142 0.125 0.216 0.185 c 0.081 0.065 0.166 0.126 0.251 0.188 c 0.076 0.055 0.151 0.111 0.229 0.162 c 0.089 0.059 0.182 0.112 0.274 0.167 c 0.079 0.047 0.157 0.094 0.238 0.138 c 0.097 0.052 0.198 0.097 0.298 0.144 c 0.081 0.038 0.161 0.078 0.244 0.112 c 0.106 0.044 0.215 0.081 0.324 0.119 c 0.082 0.029 0.162 0.06 0.245 0.086 c 0.116 0.035 0.236 0.063 0.355 0.091 c 0.08 0.019 0.157 0.042 0.238 0.059 c 0.134 0.027 0.272 0.044 0.409 0.063 c 0.068 0.009 0.135 0.023 0.204 0.03 c 0.208 0.021 0.418 0.032 0.631 0.032 h 2.938 v 23.853 h -7.25 V 50.688 z M 9.435 78.247 h 2.596 h 9.25 h 4.202 V 88 H 9.435 V 78.247 z M 27.482 77.247 v -10.62 h 2.424 h 9.25 h 4.374 V 88 H 27.482 V 77.247 z M 61.575 88 H 45.529 V 65.627 V 55.006 h 16.046 V 88 z M 44.529 53.006 c -0.552 0 -1 0.447 -1 1 v 10.621 h -3.374 v -18.92 c 0 -2.516 -2.047 -4.563 -4.563 -4.563 h -3.705 c -1.182 0 -2.144 -0.961 -2.144 -2.144 v -7.779 c 0 -1.056 0.859 -1.915 1.915 -1.915 h 20.893 v 23.699 H 44.529 z M 65.495 12.738 H 54.552 v -0.146 V 2 h 10.943 V 12.738 z M 67.621 17.357 V 6.619 h 11.8 l -3.962 4.727 c -0.312 0.372 -0.312 0.914 0 1.285 l 3.962 4.727 H 67.621 z" style="stroke: none; stroke-width: 1; stroke-dasharray: none; stroke-linecap: butt; stroke-linejoin: miter; stroke-miterlimit: 10; fill: rgb(255,255,255); fill-rule: nonzero; opacity: 1;" transform=" matrix(1 0 0 1 0 0) " stroke-linecap="round" />
</g>
</svg>